<?xml version="1.0" standalone="no"?>
<!DOCTYPE svg PUBLIC "-//W3C//DTD SVG 20010904//EN"
 "http://www.w3.org/TR/2001/REC-SVG-20010904/DTD/svg10.dtd">
<svg version="1.0" xmlns="http://www.w3.org/2000/svg"
 width="225.000000pt" height="225.000000pt" viewBox="0 0 225.000000 225.000000"
 preserveAspectRatio="xMidYMid meet">

<g transform="translate(0.000000,225.000000) scale(0.100000,-0.100000)"
fill="#000000" stroke="none">
<path d="M970 2103 c-59 -10 -178 -46 -243 -74 -229 -97 -442 -322 -526 -555
-51 -140 -64 -228 -58 -388 5 -150 26 -243 82 -370 60 -135 184 -288 309 -382
108 -82 281 -158 404 -179 l42 -7 0 356 0 356 -125 0 -125 0 0 130 0 129 123
3 122 3 6 160 c6 178 22 237 80 308 80 97 237 136 447 111 l52 -7 0 -113 0
-114 -92 0 c-167 0 -201 -38 -207 -232 l-3 -118 149 0 149 0 -20 -130 -20
-130 -128 0 -128 0 0 -356 0 -356 47 7 c121 18 298 95 408 178 176 132 296
307 362 527 35 115 43 327 19 449 -42 207 -126 362 -275 512 -148 147 -303
232 -504 273 -71 15 -281 20 -347 9z"/>
</g>
</svg>
