<?xml version="1.0" standalone="no"?>
<!DOCTYPE svg PUBLIC "-//W3C//DTD SVG 20010904//EN"
 "http://www.w3.org/TR/2001/REC-SVG-20010904/DTD/svg10.dtd">
<svg version="1.0" xmlns="http://www.w3.org/2000/svg"
 width="225.000000pt" height="225.000000pt" viewBox="0 0 225.000000 225.000000"
 preserveAspectRatio="xMidYMid meet">

<g transform="translate(0.000000,225.000000) scale(0.100000,-0.100000)"
fill="#000000" stroke="none">
<path d="M678 2100 c-279 -25 -458 -176 -515 -436 -16 -69 -18 -137 -17 -544
0 -394 3 -476 16 -537 50 -220 200 -370 416 -419 91 -21 736 -31 943 -15 218
16 301 47 414 152 76 72 126 162 152 279 15 65 17 137 17 545 0 528 -3 559
-70 693 -45 89 -134 176 -226 221 -117 58 -161 62 -618 66 -228 2 -459 0 -512
-5z m991 -194 c118 -39 195 -114 232 -228 24 -73 24 -75 24 -553 0 -475 0
-481 -23 -554 -21 -65 -32 -83 -86 -137 -52 -52 -74 -66 -132 -85 -67 -22 -82
-23 -503 -27 -276 -2 -464 0 -514 7 -196 27 -309 136 -337 327 -13 90 -13 848
0 939 28 189 141 301 335 328 17 3 237 4 490 3 412 -2 466 -4 514 -20z"/>
<path d="M1600 1752 c-44 -21 -74 -79 -65 -121 16 -75 91 -116 158 -88 40 17
77 68 77 107 0 53 -65 120 -117 120 -10 0 -34 -8 -53 -18z"/>
<path d="M1020 1619 c-76 -15 -190 -77 -251 -138 -71 -71 -126 -181 -142 -280
-49 -319 217 -604 540 -577 424 35 616 547 318 852 -121 123 -293 176 -465
143z m258 -204 c60 -33 110 -84 144 -147 20 -37 23 -58 23 -143 0 -92 -2 -104
-30 -154 -107 -193 -366 -231 -521 -77 -127 128 -127 334 0 462 72 72 135 95
246 91 71 -2 94 -8 138 -32z"/>
</g>
</svg>
