<?xml version="1.0" standalone="no"?>
<!DOCTYPE svg PUBLIC "-//W3C//DTD SVG 20010904//EN"
 "http://www.w3.org/TR/2001/REC-SVG-20010904/DTD/svg10.dtd">
<svg version="1.0" xmlns="http://www.w3.org/2000/svg"
 width="259.000000pt" height="194.000000pt" viewBox="0 0 259.000000 194.000000"
 preserveAspectRatio="xMidYMid meet">

<g transform="translate(0.000000,194.000000) scale(0.100000,-0.100000)"
fill="#000000" stroke="none">
<path d="M1330 1190 c0 -629 2 -611 -63 -678 -90 -94 -226 -101 -325 -17 -52
44 -76 99 -77 176 0 56 4 73 30 115 19 30 49 60 79 79 43 26 59 30 123 30 l73
0 0 127 0 126 -38 7 c-45 7 -156 -9 -215 -32 -212 -83 -344 -307 -308 -525 17
-103 59 -187 131 -262 158 -165 391 -201 594 -93 119 63 218 194 245 325 7 32
11 176 11 363 l0 310 28 -19 c83 -59 239 -112 329 -112 l43 0 0 123 0 123 -60
12 c-137 25 -238 99 -295 215 -20 40 -38 95 -42 125 l-6 52 -128 0 -129 0 0
-570z"/>
</g>
</svg>
